<svg width="24" height="24" viewBox="0 0 24 24" fill="none" xmlns="http://www.w3.org/2000/svg">
<path fill-rule="evenodd" clip-rule="evenodd" d="M18.9616 5.56713C19.8036 6.76939 20.32 8.16922 20.4604 9.63031C20.5829 10.88 20.4257 12.1412 20.0002 13.3226C19.5747 14.5039 18.8916 15.5758 18.0004 16.4603L12.7204 21.7703C12.6274 21.864 12.5168 21.9384 12.3949 21.9892C12.2731 22.04 12.1424 22.0661 12.0104 22.0661C11.8784 22.0661 11.7477 22.04 11.6258 21.9892C11.5039 21.9384 11.3933 21.864 11.3004 21.7703L6.00037 16.4603C5.10917 15.5758 4.42604 14.5039 4.00054 13.3226C3.57504 12.1412 3.41785 10.88 3.54037 9.63031C3.66526 8.37241 4.0672 7.15779 4.71731 6.0737C5.36742 4.98961 6.24957 4.06295 7.30037 3.36031C8.5235 2.54887 9.93592 2.068 11.4001 1.96451C12.8642 1.86103 14.3303 2.13846 15.6554 2.7698C16.9805 3.40114 18.1195 4.36486 18.9616 5.56713ZM9.49994 6.75887C10.24 6.26441 11.11 6.00049 12 6.00049C13.1927 6.00313 14.3357 6.47808 15.1791 7.32143C16.0224 8.16477 16.4974 9.30783 16.5 10.5005C16.5 11.3905 16.2361 12.2605 15.7416 13.0006C15.2471 13.7406 14.5443 14.3174 13.7221 14.6579C12.8998 14.9985 11.995 15.0877 11.1221 14.914C10.2492 14.7404 9.44736 14.3118 8.81802 13.6825C8.18869 13.0531 7.7601 12.2513 7.58647 11.3784C7.41283 10.5055 7.50195 9.60068 7.84254 8.77841C8.18314 7.95615 8.75991 7.25334 9.49994 6.75887ZM10.6111 12.5792C11.0222 12.8539 11.5055 13.0005 12 13.0005C12.663 13.0005 13.2989 12.7371 13.7678 12.2683C14.2366 11.7994 14.5 11.1635 14.5 10.5005C14.5 10.006 14.3534 9.52269 14.0787 9.11156C13.804 8.70044 13.4135 8.38001 12.9567 8.19079C12.4999 8.00157 11.9972 7.95206 11.5123 8.04852C11.0273 8.14499 10.5819 8.38309 10.2322 8.73272C9.8826 9.08235 9.6445 9.52781 9.54804 10.0128C9.45158 10.4977 9.50108 11.0004 9.6903 11.4572C9.87952 11.914 10.2 12.3045 10.6111 12.5792Z" fill="#FA530D"/>
</svg>
