<svg width="111" height="103" viewBox="0 0 111 103" fill="none" xmlns="http://www.w3.org/2000/svg">
<path d="M7.94975 12.6221C7.94975 14.4083 6.52591 15.7776 4.80544 15.7776C3.02564 15.7776 1.66113 14.3487 1.66113 12.6221C1.66113 10.8955 3.08497 9.46664 4.80544 9.46664C6.52591 9.4071 7.94975 10.836 7.94975 12.6221Z" fill="#E9ECEF"/>
<path d="M48.4105 67.3965L26.6377 16.4919L42.2999 2.14335L52.2074 14.1699V0H66.5051V17.0873H70.5987C70.5987 17.0873 72.0225 7.20405 81.9301 7.20405C88.0407 7.20405 92.0156 10.3595 92.1935 16.9087L96.821 12.2647L103.05 18.5162L98.1262 23.4578L103.94 29.2925L92.2529 67.337H48.4105V67.3965Z" fill="#DEE2E6"/>
<path d="M49.1222 89.8421C49.1222 95.915 44.1981 100.857 38.1468 100.857C32.0955 100.857 27.1714 95.915 27.1714 89.8421C27.1714 83.7693 32.0955 78.8277 38.1468 78.8277C44.1981 78.7681 49.1222 83.7098 49.1222 89.8421Z" fill="#E9ECEF"/>
<path d="M101.745 89.8421C101.745 95.915 96.8212 100.857 90.7699 100.857C84.7185 100.857 79.7944 95.915 79.7944 89.8421C79.7944 83.7693 84.7185 78.8277 90.7699 78.8277C96.8212 78.7681 101.745 83.7098 101.745 89.8421Z" fill="#E9ECEF"/>
<path d="M38.2657 103C31.0279 103 25.2139 97.1058 25.2139 89.9018C25.2139 84.9006 28.0022 80.3757 32.4517 78.1729C33.1636 77.8156 33.9942 78.1133 34.3502 78.8278C34.7061 79.5422 34.4095 80.3757 33.6976 80.733C30.1973 82.5191 28.0022 86.0318 28.0022 89.9613C28.0022 95.6769 32.6297 100.261 38.2657 100.261C41.944 100.261 45.3256 98.2966 47.1647 95.0815C47.58 94.4266 48.4106 94.1885 49.0631 94.6052C49.7157 95.022 49.953 95.8555 49.5971 96.5104C47.2833 100.44 42.9525 103 38.2657 103Z" fill="#CED4DA"/>
<path d="M90.7103 102.999C87.0914 102.999 83.5318 101.451 81.0994 98.7721C80.5655 98.1767 80.6248 97.3432 81.1587 96.8073C81.752 96.2715 82.5826 96.331 83.1165 96.8669C85.0743 99.0102 87.8033 100.201 90.7103 100.201C96.4057 100.201 100.974 95.557 100.974 89.901C100.974 84.1854 96.3463 79.601 90.7103 79.601C87.744 79.601 84.8963 80.9108 82.9385 83.1732C82.4046 83.7686 81.574 83.8281 80.9808 83.2923C80.3875 82.7565 80.3282 81.9229 80.8621 81.3276C83.3538 78.4102 86.9727 76.7432 90.7696 76.7432C98.0075 76.7432 103.821 82.6374 103.821 89.8414C103.821 97.105 97.9481 102.999 90.7103 102.999Z" fill="#CED4DA"/>
<path d="M91.6594 91.2707H41.8251C39.986 91.2707 38.2062 90.3777 37.1383 88.8892C36.0705 87.4008 35.7145 85.4361 36.3078 83.6499L39.6894 74.3621C39.9267 73.6476 40.7573 73.2904 41.4692 73.5286C42.1811 73.7667 42.5371 74.6002 42.2998 75.3147L38.9181 84.543C38.6215 85.3765 38.7995 86.3887 39.3928 87.1626C39.9267 87.9366 40.8759 88.4129 41.8251 88.4129H91.6594C92.4307 88.4129 93.0833 89.0678 93.0833 89.8418C93.024 90.6158 92.4307 91.2707 91.6594 91.2707Z" fill="#CED4DA"/>
<path d="M4.21219 16.9084C1.89845 16.9084 0 15.0032 0 12.6813C0 10.3593 1.89845 8.4541 4.21219 8.4541C4.98343 8.4541 5.63602 9.10902 5.63602 9.883C5.63602 10.657 4.98343 11.3119 4.21219 11.3119C3.44094 11.3119 2.78835 11.9668 2.78835 12.7408C2.78835 13.5148 3.44094 14.1697 4.21219 14.1697C4.98343 14.1697 5.63602 14.8246 5.63602 15.5986C5.63602 16.3131 4.98343 16.9084 4.21219 16.9084Z" fill="#CED4DA"/>
<path d="M91.2442 73.2309H48.1138C45.0882 73.2309 42.3591 71.4448 41.1726 68.6465L19.5777 17.3847C19.2811 16.6702 19.6371 15.8367 20.349 15.539C21.0609 15.2413 21.8915 15.5985 22.1881 16.313L43.783 67.5749C44.5542 69.3014 46.2154 70.4327 48.1138 70.4327H91.2442C93.3207 70.4327 95.1598 69.1228 95.753 67.0985L107.974 28.161C108.449 26.7321 108.152 25.1246 107.262 23.9338C106.373 22.7431 104.949 21.9691 103.465 21.9691L28.4174 22.0286C27.6462 22.0286 26.9936 21.3737 26.9936 20.5997C26.9936 19.8257 27.6462 19.1708 28.4174 19.1708H103.465C105.839 19.1708 108.152 20.302 109.517 22.2668C110.941 24.172 111.356 26.7321 110.644 28.9945L98.4227 67.9321C97.4142 71.0876 94.5072 73.2309 91.2442 73.2309ZM23.256 11.1928H4.27149C3.50025 11.1928 2.84766 10.5379 2.84766 9.76386C2.84766 8.98987 3.50025 8.33496 4.27149 8.33496H23.256C24.0272 8.33496 24.6798 8.98987 24.6798 9.76386C24.6205 10.5974 24.0272 11.1928 23.256 11.1928Z" fill="#CED4DA"/>
<path d="M101.745 35.3051H35.8926C35.1213 35.3051 34.4688 34.6502 34.4688 33.8762C34.4688 33.1022 35.1213 32.4473 35.8926 32.4473H101.745C102.516 32.4473 103.169 33.1022 103.169 33.8762C103.169 34.6502 102.516 35.3051 101.745 35.3051Z" fill="#CED4DA"/>
<path d="M97.1771 49.8324H40.4609C39.6897 49.8324 39.0371 49.1775 39.0371 48.4035C39.0371 47.6295 39.6897 46.9746 40.4609 46.9746H97.1771C97.9484 46.9746 98.601 47.6295 98.601 48.4035C98.5417 49.1775 97.9484 49.8324 97.1771 49.8324Z" fill="#CED4DA"/>
<path d="M90.9476 64.3598H46.6899C45.9187 64.3598 45.2661 63.7048 45.2661 62.9309C45.2661 62.1569 45.9187 61.502 46.6899 61.502H90.9476C91.7188 61.502 92.3714 62.1569 92.3714 62.9309C92.3714 63.7048 91.7188 64.3598 90.9476 64.3598Z" fill="#CED4DA"/>
</svg>
