<svg id="SvgjsSvg1001" width="288" height="288" xmlns="http://www.w3.org/2000/svg" version="1.1" xmlns:xlink="http://www.w3.org/1999/xlink" xmlns:svgjs="http://svgjs.com/svgjs"><defs id="SvgjsDefs1002"></defs><g id="SvgjsG1008"><svg xmlns="http://www.w3.org/2000/svg" data-name="Layer 1" viewBox="0 0 512 512" width="288" height="288"><path fill="#fa530d" d="M448,115.2H294.4V102.4a38.4,38.4,0,0,0-76.8,0v12.8H64a64.19,64.19,0,0,0-64,64V384a64.19,64.19,0,0,0,64,64H448a64.19,64.19,0,0,0,64-64V179.2A64.19,64.19,0,0,0,448,115.2ZM243.2,102.4a12.8,12.8,0,1,1,25.6,0v12.8H243.2ZM486.4,384A38.44,38.44,0,0,1,448,422.4H64A38.44,38.44,0,0,1,25.6,384V179.2A38.44,38.44,0,0,1,64,140.8H448a38.44,38.44,0,0,1,38.4,38.4ZM249.6,166.4H83.2a32.09,32.09,0,0,0-32,32V364.8a32.09,32.09,0,0,0,32,32H249.6a32.09,32.09,0,0,0,32-32V198.4A32.09,32.09,0,0,0,249.6,166.4ZM256,364.8a6.49,6.49,0,0,1-6.4,6.4H83.2a6.49,6.49,0,0,1-6.4-6.4V198.4a6.49,6.49,0,0,1,6.4-6.4H249.6a6.49,6.49,0,0,1,6.4,6.4Zm-57.83-87.23a38.4,38.4,0,1,0-63.54,0c-13.27,7.81-24,20.36-30.32,35.65C98,328.3,108,345.6,122.79,345.6H210c14.84,0,24.75-17.3,18.48-32.39C222.14,297.93,211.44,285.38,198.17,277.57ZM153.6,256a12.8,12.8,0,1,1,12.8,12.8A12.81,12.81,0,0,1,153.6,256Zm-24.28,64c7.65-15.66,21.9-25.6,37.08-25.6s29.43,9.94,37.08,25.6ZM448,256a12.8,12.8,0,0,1-12.8,12.8H332.8a12.8,12.8,0,0,1,0-25.6H435.2A12.8,12.8,0,0,1,448,256Zm-38.4,51.2A12.8,12.8,0,0,1,396.8,320h-64a12.8,12.8,0,0,1,0-25.6h64A12.8,12.8,0,0,1,409.6,307.2Z" class="color141f38 svgShape"></path></svg></g></svg>