<svg id="SvgjsSvg1011" width="288" height="288" xmlns="http://www.w3.org/2000/svg" version="1.1" xmlns:xlink="http://www.w3.org/1999/xlink" xmlns:svgjs="http://svgjs.com/svgjs"><defs id="SvgjsDefs1012"></defs><g id="SvgjsG1013"><svg xmlns="http://www.w3.org/2000/svg" width="288" height="288" viewBox="0 0 256 256"><path style="stroke: none; stroke-width: 1; stroke-dasharray: none; stroke-linecap: butt; stroke-linejoin: miter; stroke-miterlimit: 10; fill-rule: nonzero; opacity: 1;" fill="#adb5bd" stroke-miterlimit="10" stroke-width="0" d="M 64.44 12.016 c 5.225 0 10.136 2.035 13.831 5.729 c 7.626 7.626 7.626 20.035 0 27.662 l -19.44 19.44 L 45 78.677 L 31.169 64.846 l -19.44 -19.44 c -7.626 -7.626 -7.626 -20.035 0 -27.662 c 3.694 -3.694 8.606 -5.729 13.831 -5.729 c 5.225 0 10.136 2.035 13.831 5.729 l 1.367 1.367 L 45 23.354 l 4.242 -4.242 l 1.367 -1.367 C 54.304 14.05 59.216 12.016 64.44 12.016 M 64.44 6.016 c -6.541 0 -13.083 2.495 -18.073 7.486 L 45 14.869 l 0 0 l 0 0 l -1.367 -1.367 C 38.642 8.511 32.101 6.016 25.56 6.016 S 12.477 8.511 7.486 13.502 c -9.982 9.982 -9.982 26.165 0 36.147 l 19.44 19.44 c 0 0 0 0 0.001 0 L 45 87.163 l 18.073 -18.073 c 0 0 0 0 0 0 l 19.44 -19.44 c 9.982 -9.982 9.982 -26.165 0 -36.147 C 77.523 8.511 70.982 6.016 64.44 6.016 L 64.44 6.016 z" transform="translate(1.964 1.964) scale(2.8008)" class="color000 svgShape"></path></svg></g></svg>