<svg width="123" height="24" viewBox="0 0 123 24" fill="none" xmlns="http://www.w3.org/2000/svg">
<path d="M24.46 19.6183L29.4153 4.2411H36.2426L41.1759 19.6183H36.3968L35.648 17.2773H29.9879L29.2391 19.6183H24.46ZM30.9129 14.0559H34.745L32.9391 8.0854H32.7188L30.9129 14.0559Z" fill="#343A40"/>
<path d="M51.7295 19.9404C49.2188 19.9404 47.1559 19.1959 45.5408 17.7069C43.9404 16.2178 43.1402 14.2921 43.1402 11.9297C43.1402 9.56728 43.9404 7.64871 45.5408 6.17399C47.1559 4.68495 49.2188 3.94043 51.7295 3.94043C53.8584 3.94043 55.6717 4.50598 57.1693 5.63707C58.6669 6.75385 59.5332 8.2071 59.7681 9.99681L55.4515 10.4478C55.2753 9.6317 54.8495 8.95877 54.1741 8.42902C53.4987 7.89927 52.7279 7.63439 51.8616 7.63439C50.643 7.63439 49.6593 8.02812 48.9105 8.8156C48.1616 9.60307 47.7872 10.6411 47.7872 11.9297C47.8019 13.2183 48.1837 14.2563 48.9325 15.0438C49.6813 15.8313 50.6503 16.225 51.8396 16.225C52.7059 16.225 53.4767 15.9673 54.1521 15.4518C54.8422 14.9221 55.2826 14.2563 55.4735 13.4545L59.7902 13.9485C59.5993 15.7239 58.7477 17.17 57.2354 18.2867C55.7378 19.3892 53.9025 19.9404 51.7295 19.9404Z" fill="#343A40"/>
<path d="M86.9236 19.6183L91.879 4.2411H98.7063L103.64 19.6183H98.8605L98.1117 17.2773H92.4516L91.7028 19.6183H86.9236ZM93.3766 14.0559H97.2087L95.4028 8.0854H95.1825L93.3766 14.0559Z" fill="#343A40"/>
<path d="M114.193 19.9404C111.682 19.9404 109.62 19.1959 108.005 17.7069C106.404 16.2178 105.604 14.2921 105.604 11.9297C105.604 9.56728 106.404 7.64871 108.005 6.17399C109.62 4.68495 111.682 3.94043 114.193 3.94043C116.322 3.94043 118.135 4.50598 119.633 5.63707C121.131 6.75385 121.997 8.2071 122.232 9.99681L117.915 10.4478C117.739 9.6317 117.313 8.95877 116.638 8.42902C115.962 7.89927 115.192 7.63439 114.325 7.63439C113.107 7.63439 112.123 8.02812 111.374 8.8156C110.625 9.60307 110.251 10.6411 110.251 11.9297C110.266 13.2183 110.647 14.2563 111.396 15.0438C112.145 15.8313 113.114 16.225 114.303 16.225C115.17 16.225 115.94 15.9673 116.616 15.4518C117.306 14.9221 117.746 14.2563 117.937 13.4545L122.254 13.9485C122.063 15.7239 121.211 17.17 119.699 18.2867C118.201 19.3892 116.366 19.9404 114.193 19.9404Z" fill="#343A40"/>
<path d="M63.7178 19.6174V4.24023H69.8624L73.4522 14.2053H73.6725L77.1743 4.24023H83.429V19.6174H78.9362V10.3825H78.7159L75.3683 19.6174H71.7784L68.4308 10.404H68.2106V19.6174H63.7178Z" fill="#FA530D"/>
<path d="M1.25391 19.6174V4.24023H7.39852L10.9884 14.2053H11.2086L14.7104 4.24023H20.9651V19.6174H16.4723V10.3825H16.252L12.9044 19.6174H9.31458L5.96698 10.404H5.74674V19.6174H1.25391Z" fill="#FA530D"/>
</svg>
