<svg width="1802" height="568" viewBox="0 0 1802 568" fill="none" xmlns="http://www.w3.org/2000/svg">
<path d="M61 358.674C145.056 343.785 176.444 520.989 260.5 506.1C344.556 491.211 313.168 314.007 397.224 299.118C481.279 284.229 512.668 461.433 596.527 446.579C680.585 431.69 649.197 254.486 733.053 239.632C817.111 224.743 848.499 401.947 932.356 387.093C1016.41 372.204 985.025 195 1069.08 180.112C1153.13 165.223 1184.52 342.427 1268.58 327.538C1352.63 312.649 1321.24 135.445 1405.3 120.556C1489.36 105.667 1520.75 282.871 1604.81 267.982C1688.86 253.094 1657.47 75.8894 1741.53 61.0002" stroke="#FFE9E0" stroke-width="120" stroke-linecap="round"/>
</svg>
