<svg width="16" height="20" viewBox="0 0 16 20" fill="none" xmlns="http://www.w3.org/2000/svg">
<path d="M14.8889 5.62963H12.1111V4.7037C12.1111 3.72142 11.7209 2.77937 11.0263 2.08479C10.3317 1.39021 9.38969 1 8.40741 1C7.42512 1 6.48307 1.39021 5.78849 2.08479C5.09391 2.77937 4.7037 3.72142 4.7037 4.7037V5.62963H1.92593C1.68036 5.62963 1.44484 5.72718 1.2712 5.90083C1.09755 6.07447 1 6.30999 1 6.55556V16.7407C1 17.4775 1.29266 18.184 1.81359 18.7049C2.33453 19.2259 3.04106 19.5185 3.77778 19.5185H13.037C13.7737 19.5185 14.4803 19.2259 15.0012 18.7049C15.5222 18.184 15.8148 17.4775 15.8148 16.7407V6.55556C15.8148 6.30999 15.7173 6.07447 15.5436 5.90083C15.37 5.72718 15.1345 5.62963 14.8889 5.62963ZM6.55555 4.7037C6.55555 4.21256 6.75066 3.74154 7.09795 3.39425C7.44524 3.04696 7.91626 2.85185 8.40741 2.85185C8.89855 2.85185 9.36957 3.04696 9.71686 3.39425C10.0642 3.74154 10.2593 4.21256 10.2593 4.7037V5.62963H6.55555V4.7037ZM13.963 16.7407C13.963 16.9863 13.8654 17.2218 13.6918 17.3955C13.5181 17.5691 13.2826 17.6667 13.037 17.6667H3.77778C3.53221 17.6667 3.29669 17.5691 3.12305 17.3955C2.9494 17.2218 2.85185 16.9863 2.85185 16.7407V7.48148H4.7037V8.40741C4.7037 8.65298 4.80126 8.88849 4.9749 9.06214C5.14855 9.23578 5.38406 9.33333 5.62963 9.33333C5.8752 9.33333 6.11071 9.23578 6.28436 9.06214C6.458 8.88849 6.55555 8.65298 6.55555 8.40741V7.48148H10.2593V8.40741C10.2593 8.65298 10.3568 8.88849 10.5305 9.06214C10.7041 9.23578 10.9396 9.33333 11.1852 9.33333C11.4308 9.33333 11.6663 9.23578 11.8399 9.06214C12.0136 8.88849 12.1111 8.65298 12.1111 8.40741V7.48148H13.963V16.7407Z" fill="white" stroke="#FA530D" stroke-width="0.3"/>
</svg>
