<?xml version="1.0" encoding="iso-8859-1"?>
<!-- Generator: Adobe Illustrator 19.0.0, SVG Export Plug-In . SVG Version: 6.00 Build 0)  -->
<svg version="1.1" id="Layer_1" xmlns="http://www.w3.org/2000/svg" xmlns:xlink="http://www.w3.org/1999/xlink" x="0px" y="0px"
	 viewBox="0 0 512 512" style="enable-background:new 0 0 512 512;" xml:space="preserve">
<g>
	<g>
		<path d="M435.2,76.8c-90.743,0-160.401-68.608-161.101-69.299C269.303,2.697,262.793,0,256,0c-6.784,0-13.286,2.688-18.091,7.484
			C236.177,9.182,166.246,76.8,76.8,76.8c-14.14,0-25.6,11.46-25.6,25.6c0,320.401,186.769,404.122,194.714,407.526
			C249.139,511.309,252.57,512,256,512c3.43,0,6.869-0.691,10.086-2.074C274.039,506.522,460.8,422.801,460.8,102.4
			C460.8,88.26,449.34,76.8,435.2,76.8z M256,486.4c0,0-179.2-76.8-179.2-384c102.4,0,179.2-76.8,179.2-76.8s76.8,76.8,179.2,76.8
			C435.2,409.6,256,486.4,256,486.4z"/>
	</g>
</g>
<g>
	<g>
		<path d="M389.939,136.158C385.092,130.953,378.308,128,371.2,128c-52.258,0-96.708-43.315-97.152-43.759
			c-5-4.941-11.537-7.415-18.074-7.415c-6.528,0-13.047,2.475-18.031,7.424C237.193,84.992,192.87,128,140.8,128
			c-7.108,0-13.892,2.953-18.739,8.158c-4.838,5.205-7.305,12.177-6.801,19.268c13.5,189.039,121.276,268.075,125.858,271.352
			c4.454,3.183,9.668,4.77,14.882,4.77c5.214,0,10.428-1.587,14.882-4.77c4.582-3.268,112.35-82.313,125.858-271.352
			C397.244,148.335,394.786,141.363,389.939,136.158z M256,405.939c0,0-102.4-73.139-115.2-252.339c64,0,115.2-51.2,115.2-51.2
			s51.2,51.2,115.2,51.2C358.4,332.8,256,405.939,256,405.939z"/>
	</g>
</g>
<g>
</g>
<g>
</g>
<g>
</g>
<g>
</g>
<g>
</g>
<g>
</g>
<g>
</g>
<g>
</g>
<g>
</g>
<g>
</g>
<g>
</g>
<g>
</g>
<g>
</g>
<g>
</g>
<g>
</g>
</svg>
