<svg width="24" height="24" viewBox="0 0 24 24" fill="none" xmlns="http://www.w3.org/2000/svg">
<path d="M18.4817 7.37084H15.7039V6.44492C15.7039 5.46263 15.3137 4.52058 14.6191 3.826C13.9245 3.13142 12.9825 2.74121 12.0002 2.74121C11.0179 2.74121 10.0758 3.13142 9.38127 3.826C8.68669 4.52058 8.29648 5.46263 8.29648 6.44492V7.37084H5.5187C5.27313 7.37084 5.03762 7.46839 4.86397 7.64204C4.69033 7.81568 4.59277 8.0512 4.59277 8.29677V18.482C4.59277 19.2187 4.88543 19.9252 5.40637 20.4461C5.9273 20.9671 6.63384 21.2597 7.37055 21.2597H16.6298C17.3665 21.2597 18.0731 20.9671 18.594 20.4461C19.1149 19.9252 19.4076 19.2187 19.4076 18.482V8.29677C19.4076 8.0512 19.31 7.81568 19.1364 7.64204C18.9627 7.46839 18.7272 7.37084 18.4817 7.37084ZM10.1483 6.44492C10.1483 5.95377 10.3434 5.48275 10.6907 5.13546C11.038 4.78817 11.509 4.59306 12.0002 4.59306C12.4913 4.59306 12.9623 4.78817 13.3096 5.13546C13.6569 5.48275 13.852 5.95377 13.852 6.44492V7.37084H10.1483V6.44492ZM17.5557 18.482C17.5557 18.7275 17.4582 18.963 17.2845 19.1367C17.1109 19.3103 16.8754 19.4079 16.6298 19.4079H7.37055C7.12498 19.4079 6.88947 19.3103 6.71582 19.1367C6.54218 18.963 6.44463 18.7275 6.44463 18.482V9.22269H8.29648V10.1486C8.29648 10.3942 8.39403 10.6297 8.56767 10.8033C8.74132 10.977 8.97683 11.0745 9.2224 11.0745C9.46797 11.0745 9.70349 10.977 9.87713 10.8033C10.0508 10.6297 10.1483 10.3942 10.1483 10.1486V9.22269H13.852V10.1486C13.852 10.3942 13.9496 10.6297 14.1232 10.8033C14.2969 10.977 14.5324 11.0745 14.778 11.0745C15.0235 11.0745 15.259 10.977 15.4327 10.8033C15.6063 10.6297 15.7039 10.3942 15.7039 10.1486V9.22269H17.5557V18.482Z" fill="#ADB5BD" stroke="white" stroke-width="0.3"/>
</svg>
