<svg width="22" height="14" viewBox="0 0 22 14" fill="none" xmlns="http://www.w3.org/2000/svg">
<path d="M11 3H21C21.2652 3 21.5196 2.89464 21.7071 2.70711C21.8946 2.51957 22 2.26522 22 2C22 1.73478 21.8946 1.48043 21.7071 1.29289C21.5196 1.10536 21.2652 1 21 1H11C10.7348 1 10.4804 1.10536 10.2929 1.29289C10.1054 1.48043 10 1.73478 10 2C10 2.26522 10.1054 2.51957 10.2929 2.70711C10.4804 2.89464 10.7348 3 11 3ZM21 6H11C10.7348 6 10.4804 6.10536 10.2929 6.29289C10.1054 6.48043 10 6.73478 10 7C10 7.26522 10.1054 7.51957 10.2929 7.70711C10.4804 7.89464 10.7348 8 11 8H21C21.2652 8 21.5196 7.89464 21.7071 7.70711C21.8946 7.51957 22 7.26522 22 7C22 6.73478 21.8946 6.48043 21.7071 6.29289C21.5196 6.10536 21.2652 6 21 6ZM21 11H11C10.7348 11 10.4804 11.1054 10.2929 11.2929C10.1054 11.4804 10 11.7348 10 12C10 12.2652 10.1054 12.5196 10.2929 12.7071C10.4804 12.8946 10.7348 13 11 13H21C21.2652 13 21.5196 12.8946 21.7071 12.7071C21.8946 12.5196 22 12.2652 22 12C22 11.7348 21.8946 11.4804 21.7071 11.2929C21.5196 11.1054 21.2652 11 21 11Z" fill="#ADB5BD"/>
<path d="M5.33152 10.0215L5.71766 9.67148C5.84181 9.5627 5.98919 9.47642 6.1514 9.41755C6.31361 9.35868 6.48746 9.32838 6.66303 9.32838C6.83861 9.32838 7.01246 9.35868 7.17467 9.41755C7.33688 9.47642 7.48426 9.5627 7.60841 9.67148C7.73256 9.78026 7.83104 9.90939 7.89823 10.0515C7.96542 10.1936 8 10.346 8 10.4998C8 10.6536 7.96542 10.806 7.89823 10.9481C7.83104 11.0902 7.73256 11.2193 7.60841 11.3281L4.94538 13.6614C4.81875 13.7676 4.66942 13.8509 4.50598 13.9064C4.34659 13.9681 4.17426 14 4 14C3.82574 14 3.65341 13.9681 3.49402 13.9064C3.33058 13.8509 3.18126 13.7676 3.05462 13.6614L0.391588 11.3281C0.140858 11.1084 0 10.8105 0 10.4998C0 10.1891 0.140858 9.89116 0.391588 9.67148C0.642318 9.4518 0.98238 9.32838 1.33697 9.32838C1.69155 9.32838 2.03161 9.4518 2.28234 9.67148L2.66848 10.0215V1.16664C2.66848 0.857231 2.80877 0.560491 3.05848 0.341702C3.30818 0.122914 3.64686 0 4 0C4.35314 0 4.69182 0.122914 4.94152 0.341702C5.19123 0.560491 5.33152 0.857231 5.33152 1.16664V10.0215Z" fill="#ADB5BD"/>
</svg>
