<svg width="24" height="24" viewBox="0 0 24 24" fill="none" xmlns="http://www.w3.org/2000/svg">
<path d="M5.4 4.5H18.6C19.0376 4.5 19.4573 4.67559 19.7667 4.98816C20.0762 5.30072 20.25 5.72464 20.25 6.16667V11.1667C20.25 13.3768 19.3808 15.4964 17.8336 17.0592C16.2865 18.622 14.188 19.5 12 19.5C10.9166 19.5 9.8438 19.2845 8.84286 18.8657C7.84193 18.4469 6.93245 17.833 6.16637 17.0592C4.61919 15.4964 3.75 13.3768 3.75 11.1667V6.16667C3.75 5.72464 3.92384 5.30072 4.23327 4.98816C4.54271 4.67559 4.96239 4.5 5.4 4.5V4.5Z" stroke="#FA530D" stroke-width="2" stroke-linecap="round" stroke-linejoin="round"/>
<path d="M9 10.5L12 13.5L15 10.5" stroke="#FA530D" stroke-width="2" stroke-linecap="round" stroke-linejoin="round"/>
</svg>
